<svg xmlns="http://www.w3.org/2000/svg" viewBox="0 0 32 32" width="512" height="512" shape-rendering="crispEdges" xmlns:c2pa="http://c2pa.org/manifest"><metadata><c2pa:manifest>AAAWgmp1bWIAAAAeanVtZGMycGEAEQAQgAAAqgA4m3EDYzJwYQAAABZcanVtYgAAAEdqdW1kYzJtYQARABCAAACqADibcQN1cm46YzJwYTo5ZDM5N2VhMy1mYzAyLTQ4ZTYtYmNiNS0wNDJjZmNhMWRkYzYAAAADl2p1bWIAAAApanVtZGMyYXMAEQAQgAAAqgA4m3EDYzJwYS5hc3NlcnRpb25zAAAAALxqdW1iAAAARGp1bWRjYm9yABEAEIAAAKoAOJtxE2MycGEuaW5ncmVkaWVudC52MwAAAAAYYzJzaM58XBEGnvE26n3FeaFjX5sAAABwY2JvcqNpZGM6Zm9ybWF0bWltYWdlL3N2Zyt4bWxqaW5zdGFuY2VJRHgseG1wOmlpZDozMjEwNmJhYS0yODFmLTQzZTQtODRlYS0wNTMyODFhOTNlMDFscmVsYXRpb25zaGlwaHBhcmVudE9mAAAB4mp1bWIAAABBanVtZGNib3IAEQAQgAAAqgA4m3ETYzJwYS5hY3Rpb25zLnYyAAAAABhjMnNoWoKP3aQ+wkRz/tUoMW91xAAAAZljYm9yomdhY3Rpb25zgqJmYWN0aW9ua2MycGEub3BlbmVkanBhcmFtZXRlcnOha2luZ3JlZGllbnRzgaJjdXJseC1zZWxmI2p1bWJmPWMycGEuYXNzZXJ0aW9ucy9jMnBhLmluZ3JlZGllbnQudjNkaGFzaFggDmVSIwAGbg7mq8Q9mvQw6/WbLzZlOiDQ4JfOgFSOQD6kZmFjdGlvbngdY29tLmFudGhyb3BpYy5jbGF1ZGUucHJvdmlkZWRqcGFyYW1ldGVyc6F4H2NvbS5hbnRocm9waWMub3JpZ2luLWNvbmZpZGVuY2VndW5rbm93bmtkZXNjcmlwdGlvbnhmQ2xhdWRlIHByb3ZpZGVkIHRoaXMgZmlsZSBhdCB0aGUgcmVxdWVzdCBvZiBhIHVzZXIgYW5kIG1heSBoYXZlIGNyZWF0ZWQgb3IgbW9kaWZpZWQgdGhlIGZpbGUgY29udGVudHMubXNvZnR3YXJlQWdlbnShZG5hbWVmQ2xhdWRlcmFsbEFjdGlvbnNJbmNsdWRlZPUAAADIanVtYgAAAEBqdW1kY2JvcgARABCAAACqADibcRNjMnBhLmhhc2guZGF0YQAAAAAYYzJzaAKW3gDa6WP6jVtw31/uaF0AAACAY2JvcqVjYWxnZnNoYTI1NmNwYWRNAAAAAAAAAAAAAAAAAGRoYXNoWCAwgxIRGE2/SijuONVGUooVHRXbiuotkTsZxdLpDeAp6WRuYW1lbmp1bWJmIG1hbmlmZXN0amV4Y2x1c2lvbnOBomVzdGFydBixZmxlbmd0aBkeBAAAAj5qdW1iAAAAJ2p1bWRjMmNsABEAEIAAAKoAOJtxA2MycGEuY2xhaW0udjIAAAACD2Nib3KlY2FsZ2ZzaGEyNTZpc2lnbmF0dXJleE1zZWxmI2p1bWJmPS9jMnBhL3VybjpjMnBhOjlkMzk3ZWEzLWZjMDItNDhlNi1iY2I1LTA0MmNmY2ExZGRjNi9jMnBhLnNpZ25hdHVyZWppbnN0YW5jZUlEeCx4bXA6aWlkOmQ0MzY2ZDdjLTI0NjMtNDdjYy1hNDhkLTU2NTM2MzRhY2JmNHJjcmVhdGVkX2Fzc2VydGlvbnODomN1cmx4LXNlbGYjanVtYmY9YzJwYS5hc3NlcnRpb25zL2MycGEuaW5ncmVkaWVudC52M2RoYXNoWCAOZVIjAAZuDuarxD2a9DDr9ZsvNmU6INDgl86AVI5APqJjdXJseCpzZWxmI2p1bWJmPWMycGEuYXNzZXJ0aW9ucy9jMnBhLmFjdGlvbnMudjJkaGFzaFggsO+lc84TnNGUn1WQJTQuznDym7QAlKeNPA6fSpeOyNeiY3VybHgpc2VsZiNqdW1iZj1jMnBhLmFzc2VydGlvbnMvYzJwYS5oYXNoLmRhdGFkaGFzaFggc06jFBtosN/p+U2YD+7G63t7TObZgsgTyQG682PbZih0Y2xhaW1fZ2VuZXJhdG9yX2luZm+jZG5hbWVvQW50aHJvcGljIEZpbGVzZ3ZlcnNpb25lMS4wLjBrc3BlY1ZlcnNpb25lMi40LjAAABA4anVtYgAAAChqdW1kYzJjcwARABCAAACqADibcQNjMnBhLnNpZ25hdHVyZQAAABAIY2JvctKEWQISogEmGCFZAgowggIGMIIBjaADAgECAhRA5aAK7sI50L64g/oGQgU9Z1UTADAKBggqhkjOPQQDAzBJMRcwFQYDVQQKEw5BbnRocm9waWMsIFBCQzEuMCwGA1UEAxMlQW50aHJvcGljIENvbnRlbnQgQ3JlZGVudGlhbHMgUm9vdCBDQTAeFw0yNjA4MDcxODQzNTZaFw0yODA4MDYxOTQzNTZaMEQxFzAVBgNVBAoTDkFudGhyb3BpYywgUEJDMSkwJwYDVQQDEyBBbnRocm9waWMgQ2xhdWRlIENvbnRlbnQgU2lnbmluZzBZMBMGByqGSM49AgEGCCqGSM49AwEHA0IABJh6CmvLUBgFFNU0vUKlOVtE6djd17L5SuwX0LemFisBM3dkd/3cyjxFA3Qo5S46fX0/ihY0VZ7mfb9KF703t5OjWDBWMA4GA1UdDwEB/wQEAwIHgDAVBgNVHSUEDjAMBgorBgEEAYPoXgIBMAwGA1UdEwEB/wQCMAAwHwYDVR0jBBgwFoAUzlHiBIFOZFsj+OPEz5o+nMHXXMIwCgYIKoZIzj0EAwMDZwAwZAIwMXMdFJ4BetLLVY7ORuE9noqbbAZOZn/aArXyTwFAZfKrPzxF2vPoJNf1+UCdg1XGAjBwX1zd9WGqYkqmL5SFqw1QySjr1zJfpJM9+1rdDwSPLMOPOjKuiXjoU/pUUeG9RwmhY3BhZFkNngAAAAAAAAAAAAAAAAAAAAAAAAAAAAAAAAAAAAAAAAAAAAAAAAAAAAAAAAAAAAAAAAAAAAAAAAAAAAAAAAAAAAAAAAAAAAAAAAAAAAAAAAAAAAAAAAAAAAAAAAAAAAAAAAAAAAAAAAAAAAAAAAAAAAAAAAAAAAAAAAAAAAAAAAAAAAAAAAAAAAAAAAAAAAAAAAAAAAAAAAAAAAAAAAAAAAAAAAAAAAAAAAAAAAAAAAAAAAAAAAAAAAAAAAAAAAAAAAAAAAAAAAAAAAAAAAAAAAAAAAAAAAAAAAAAAAAAAAAAAAAAAAAAAAAAAAAAAAAAAAAAAAAAAAAAAAAAAAAAAAAAAAAAAAAAAAAAAAAAAAAAAAAAAAAAAAAAAAAAAAAAAAAAAAAAAAAAAAAAAAAAAAAAAAAAAAAAAAAAAAAAAAAAAAAAAAAAAAAAAAAAAAAAAAAAAAAAAAAAAAAAAAAAAAAAAAAAAAAAAAAAAAAAAAAAAAAAAAAAAAAAAAAAAAAAAAAAAAAAAAAAAAAAAAAAAAAAAAAAAAAAAAAAAAAAAAAAAAAAAAAAAAAAAAAAAAAAAAAAAAAAAAAAAAAAAAAAAAAAAAAAAAAAAAAAAAAAAAAAAAAAAAAAAAAAAAAAAAAAAAAAAAAAAAAAAAAAAAAAAAAAAAAAAAAAAAAAAAAAAAAAAAAAAAAAAAAAAAAAAAAAAAAAAAAAAAAAAAAAAAAAAAAAAAAAAAAAAAAAAAAAAAAAAAAAAAAAAAAAAAAAAAAAAAAAAAAAAAAAAAAAAAAAAAAAAAAAAAAAAAAAAAAAAAAAAAAAAAAAAAAAAAAAAAAAAAAAAAAAAAAAAAAAAAAAAAAAAAAAAAAAAAAAAAAAAAAAAAAAAAAAAAAAAAAAAAAAAAAAAAAAAAAAAAAAAAAAAAAAAAAAAAAAAAAAAAAAAAAAAAAAAAAAAAAAAAAAAAAAAAAAAAAAAAAAAAAAAAAAAAAAAAAAAAAAAAAAAAAAAAAAAAAAAAAAAAAAAAAAAAAAAAAAAAAAAAAAAAAAAAAAAAAAAAAAAAAAAAAAAAAAAAAAAAAAAAAAAAAAAAAAAAAAAAAAAAAAAAAAAAAAAAAAAAAAAAAAAAAAAAAAAAAAAAAAAAAAAAAAAAAAAAAAAAAAAAAAAAAAAAAAAAAAAAAAAAAAAAAAAAAAAAAAAAAAAAAAAAAAAAAAAAAAAAAAAAAAAAAAAAAAAAAAAAAAAAAAAAAAAAAAAAAAAAAAAAAAAAAAAAAAAAAAAAAAAAAAAAAAAAAAAAAAAAAAAAAAAAAAAAAAAAAAAAAAAAAAAAAAAAAAAAAAAAAAAAAAAAAAAAAAAAAAAAAAAAAAAAAAAAAAAAAAAAAAAAAAAAAAAAAAAAAAAAAAAAAAAAAAAAAAAAAAAAAAAAAAAAAAAAAAAAAAAAAAAAAAAAAAAAAAAAAAAAAAAAAAAAAAAAAAAAAAAAAAAAAAAAAAAAAAAAAAAAAAAAAAAAAAAAAAAAAAAAAAAAAAAAAAAAAAAAAAAAAAAAAAAAAAAAAAAAAAAAAAAAAAAAAAAAAAAAAAAAAAAAAAAAAAAAAAAAAAAAAAAAAAAAAAAAAAAAAAAAAAAAAAAAAAAAAAAAAAAAAAAAAAAAAAAAAAAAAAAAAAAAAAAAAAAAAAAAAAAAAAAAAAAAAAAAAAAAAAAAAAAAAAAAAAAAAAAAAAAAAAAAAAAAAAAAAAAAAAAAAAAAAAAAAAAAAAAAAAAAAAAAAAAAAAAAAAAAAAAAAAAAAAAAAAAAAAAAAAAAAAAAAAAAAAAAAAAAAAAAAAAAAAAAAAAAAAAAAAAAAAAAAAAAAAAAAAAAAAAAAAAAAAAAAAAAAAAAAAAAAAAAAAAAAAAAAAAAAAAAAAAAAAAAAAAAAAAAAAAAAAAAAAAAAAAAAAAAAAAAAAAAAAAAAAAAAAAAAAAAAAAAAAAAAAAAAAAAAAAAAAAAAAAAAAAAAAAAAAAAAAAAAAAAAAAAAAAAAAAAAAAAAAAAAAAAAAAAAAAAAAAAAAAAAAAAAAAAAAAAAAAAAAAAAAAAAAAAAAAAAAAAAAAAAAAAAAAAAAAAAAAAAAAAAAAAAAAAAAAAAAAAAAAAAAAAAAAAAAAAAAAAAAAAAAAAAAAAAAAAAAAAAAAAAAAAAAAAAAAAAAAAAAAAAAAAAAAAAAAAAAAAAAAAAAAAAAAAAAAAAAAAAAAAAAAAAAAAAAAAAAAAAAAAAAAAAAAAAAAAAAAAAAAAAAAAAAAAAAAAAAAAAAAAAAAAAAAAAAAAAAAAAAAAAAAAAAAAAAAAAAAAAAAAAAAAAAAAAAAAAAAAAAAAAAAAAAAAAAAAAAAAAAAAAAAAAAAAAAAAAAAAAAAAAAAAAAAAAAAAAAAAAAAAAAAAAAAAAAAAAAAAAAAAAAAAAAAAAAAAAAAAAAAAAAAAAAAAAAAAAAAAAAAAAAAAAAAAAAAAAAAAAAAAAAAAAAAAAAAAAAAAAAAAAAAAAAAAAAAAAAAAAAAAAAAAAAAAAAAAAAAAAAAAAAAAAAAAAAAAAAAAAAAAAAAAAAAAAAAAAAAAAAAAAAAAAAAAAAAAAAAAAAAAAAAAAAAAAAAAAAAAAAAAAAAAAAAAAAAAAAAAAAAAAAAAAAAAAAAAAAAAAAAAAAAAAAAAAAAAAAAAAAAAAAAAAAAAAAAAAAAAAAAAAAAAAAAAAAAAAAAAAAAAAAAAAAAAAAAAAAAAAAAAAAAAAAAAAAAAAAAAAAAAAAAAAAAAAAAAAAAAAAAAAAAAAAAAAAAAAAAAAAAAAAAAAAAAAAAAAAAAAAAAAAAAAAAAAAAAAAAAAAAAAAAAAAAAAAAAAAAAAAAAAAAAAAAAAAAAAAAAAAAAAAAAAAAAAAAAAAAAAAAAAAAAAAAAAAAAAAAAAAAAAAAAAAAAAAAAAAAAAAAAAAAAAAAAAAAAAAAAAAAAAAAAAAAAAAAAAAAAAAAAAAAAAAAAAAAAAAAAAAAAAAAAAAAAAAAAAAAAAAAAAAAAAAAAAAAAAAAAAAAAAAAAAAAAAAAAAAAAAAAAAAAAAAAAAAAAAAAAAAAAAAAAAAAAAAAAAAAAAAAAAAAAAAAAAAAAAAAAAAAAAAAAAAAAAAAAAAAAAAAAAAAAAAAAAAAAAAAAAAAAAAAAAAAAAAAAAAAAAAAAAAAAAAAAAAAAAAAAAAAAAAAAAAAAAAAAAAAAAAAAAAAAAAAAAAAAAAAAAAAAAAAAAAAAAAAAAAAAAAAAAAAAAAAAAAAAAAAAAAAAAAAAAAAAAAAAAAAAAAAAAAAAAAAAAAAAAAAAAAAAAAAAAAAAAAAAAAAAAAAAAAAAAAAAAAAAAAAAAAAAAAAAAAAAAAAAAAAAAAAAAAAAAAAAAAAAAAAAAAAAAAAAAAAAAAAAAAAAAAAAAAAAAAAAAAAAAAAAAAAAAAAAAAAAAAAAAAAAAAAAAAAAAAAAAAAAAAAAAAAAAAAAAAAAAAAAAAAAAAAAAAAAAAAAAAAAAAAAAAAAAAAAAAAAAAAAAAAAAAAAAAAAAAAAAAAAAAAAAAAAAAAAAAAAAAAAAAAAAAAAAAAAAAAAAAAAAAAAAAAAAAAAAAAAAAAAAAAAAAAAAAAAAAAAAAAAAAAAAAAAAAAAAAAAAAAAAAAAAAAAAAAAAAAAAAAAAAAAAAAAAAAAAAAAAAAAAAAAAAAAAAAAAAAAAAAAAAAAAAAAAAAAAAAAAAAAAAAAAAAAAAAAAAAAAAAAAAAAAAAAAAAAAAAAAAAAAAAAAAAAAAAAAAAAAAAAAAAAAAAAAAAAAAAAAAAAAAAAAAAAAAAAAAAAAAAAAAAAAAAAAAAAAAAAAAAAAAAAAAAAAAAAAAAAAAAAAAAAAAAAAAAAAAAAAAAAAAAAAAAAAAAAAAAAAAAAAAAAAAAAAAAAAAAAAAAAAAAAAAAAAAAAAAAAAAAAAAAAAAAAAAAAAAAAAAAAAAAAAAAAAAAAAAAAAAAAAAAAAAAAAAAAAAAAAAAAAAAAAAAAAAAAAAAAAAAAAAAAAAAAAAAAAAAAAAAAAAAAAAAAAAAAAAAAAAAAAAAAAAAAAAAAAAAAAAAAAAAAAAAAAAAAAAAAAAAAAAAAAAAAAAAAAAAAAAAAAAAAAAAAAAAAAAAAAAAAAAAAAAAAAAAAAAAAAAAAAAAAAAAAAAAAAAAAAAAAAAAAAAAAAAAAAAAAAAAAAAAAAAAAAAAAAAAAAAAAAAAAAAAAAAAAAAAAAAAAAAAAAAAAAAAAAAAAAAAAAAAAAAAAAAAAAAAAAAAAAAAAAAAAAAAAAAAAAAAAAAAAAAAAAAAAAAAAAAAAAAAAAAAAAAAAAAAAAAAAAAAAAAAAAAAAAAAAAAAAAAAAAAAAAAAAAAAAAAAAAAAAAAAAAAAAAAAAAAAAAAAAAAAAAAAAAAAAAAAAAAAAAAAAAAAAAAAAAAAAAAAAAAAAAAAAAAAAAAAAAAAAAAAAAAAAAAAAAAAAAAAAAAAAAAAAAAAAAAAAAAAAAAAAAAAAAAAAAAAAAAAAAAAAAAAAAAAAAAAAAAAAAAAAAAAAAAAAAAAAAAAAAAAAAAAAAAAAAAAAAAAAAAAAAAAAAAAAAAAAAAAAAAAAAAAAAAAAAAAAAAAAAAAAAAAAAAAAAAAPZYQHlFczgIpl/IBI6kXUYiG9vwxKVevi4fsEpJ5RcGVB8Wp3xss5RGXaxXx3dCD+R1I0bLziKSdWRZstTAK126GAs=</c2pa:manifest></metadata>
<rect x="2" y="8" width="28" height="1" fill="#1a1c2c"/>
<rect x="1" y="9" width="2" height="1" fill="#1a1c2c"/>
<rect x="3" y="9" width="23" height="1" fill="#5c709c"/>
<rect x="26" y="9" width="2" height="1" fill="#5eead4"/>
<rect x="28" y="9" width="1" height="1" fill="#5c709c"/>
<rect x="29" y="9" width="2" height="1" fill="#1a1c2c"/>
<rect x="1" y="10" width="1" height="1" fill="#1a1c2c"/>
<rect x="2" y="10" width="28" height="1" fill="#3b4a6b"/>
<rect x="30" y="10" width="1" height="1" fill="#1a1c2c"/>
<rect x="1" y="11" width="1" height="1" fill="#1a1c2c"/>
<rect x="2" y="11" width="1" height="1" fill="#3b4a6b"/>
<rect x="3" y="11" width="2" height="1" fill="#f0f2f7"/>
<rect x="5" y="11" width="1" height="1" fill="#3b4a6b"/>
<rect x="6" y="11" width="2" height="1" fill="#f0f2f7"/>
<rect x="8" y="11" width="1" height="1" fill="#3b4a6b"/>
<rect x="9" y="11" width="2" height="1" fill="#f0f2f7"/>
<rect x="11" y="11" width="1" height="1" fill="#3b4a6b"/>
<rect x="12" y="11" width="2" height="1" fill="#f0f2f7"/>
<rect x="14" y="11" width="1" height="1" fill="#3b4a6b"/>
<rect x="15" y="11" width="2" height="1" fill="#f0f2f7"/>
<rect x="17" y="11" width="1" height="1" fill="#3b4a6b"/>
<rect x="18" y="11" width="2" height="1" fill="#f0f2f7"/>
<rect x="20" y="11" width="1" height="1" fill="#3b4a6b"/>
<rect x="21" y="11" width="2" height="1" fill="#f0f2f7"/>
<rect x="23" y="11" width="1" height="1" fill="#3b4a6b"/>
<rect x="24" y="11" width="2" height="1" fill="#f0f2f7"/>
<rect x="26" y="11" width="1" height="1" fill="#3b4a6b"/>
<rect x="27" y="11" width="2" height="1" fill="#f0f2f7"/>
<rect x="29" y="11" width="1" height="1" fill="#3b4a6b"/>
<rect x="30" y="11" width="1" height="1" fill="#1a1c2c"/>
<rect x="1" y="12" width="1" height="1" fill="#1a1c2c"/>
<rect x="2" y="12" width="1" height="1" fill="#3b4a6b"/>
<rect x="3" y="12" width="2" height="1" fill="#96a2bc"/>
<rect x="5" y="12" width="1" height="1" fill="#3b4a6b"/>
<rect x="6" y="12" width="2" height="1" fill="#96a2bc"/>
<rect x="8" y="12" width="1" height="1" fill="#3b4a6b"/>
<rect x="9" y="12" width="2" height="1" fill="#96a2bc"/>
<rect x="11" y="12" width="1" height="1" fill="#3b4a6b"/>
<rect x="12" y="12" width="2" height="1" fill="#96a2bc"/>
<rect x="14" y="12" width="1" height="1" fill="#3b4a6b"/>
<rect x="15" y="12" width="2" height="1" fill="#96a2bc"/>
<rect x="17" y="12" width="1" height="1" fill="#3b4a6b"/>
<rect x="18" y="12" width="2" height="1" fill="#96a2bc"/>
<rect x="20" y="12" width="1" height="1" fill="#3b4a6b"/>
<rect x="21" y="12" width="2" height="1" fill="#96a2bc"/>
<rect x="23" y="12" width="1" height="1" fill="#3b4a6b"/>
<rect x="24" y="12" width="2" height="1" fill="#96a2bc"/>
<rect x="26" y="12" width="1" height="1" fill="#3b4a6b"/>
<rect x="27" y="12" width="2" height="1" fill="#96a2bc"/>
<rect x="29" y="12" width="1" height="1" fill="#3b4a6b"/>
<rect x="30" y="12" width="1" height="1" fill="#1a1c2c"/>
<rect x="1" y="13" width="1" height="1" fill="#1a1c2c"/>
<rect x="2" y="13" width="28" height="1" fill="#3b4a6b"/>
<rect x="30" y="13" width="1" height="1" fill="#1a1c2c"/>
<rect x="1" y="14" width="1" height="1" fill="#1a1c2c"/>
<rect x="2" y="14" width="1" height="1" fill="#3b4a6b"/>
<rect x="3" y="14" width="3" height="1" fill="#f0f2f7"/>
<rect x="6" y="14" width="1" height="1" fill="#3b4a6b"/>
<rect x="7" y="14" width="2" height="1" fill="#f0f2f7"/>
<rect x="9" y="14" width="1" height="1" fill="#3b4a6b"/>
<rect x="10" y="14" width="2" height="1" fill="#f0f2f7"/>
<rect x="12" y="14" width="1" height="1" fill="#3b4a6b"/>
<rect x="13" y="14" width="2" height="1" fill="#f0f2f7"/>
<rect x="15" y="14" width="1" height="1" fill="#3b4a6b"/>
<rect x="16" y="14" width="2" height="1" fill="#f0f2f7"/>
<rect x="18" y="14" width="1" height="1" fill="#3b4a6b"/>
<rect x="19" y="14" width="2" height="1" fill="#f0f2f7"/>
<rect x="21" y="14" width="1" height="1" fill="#3b4a6b"/>
<rect x="22" y="14" width="2" height="1" fill="#f0f2f7"/>
<rect x="24" y="14" width="1" height="1" fill="#3b4a6b"/>
<rect x="25" y="14" width="4" height="1" fill="#f0f2f7"/>
<rect x="29" y="14" width="1" height="1" fill="#3b4a6b"/>
<rect x="30" y="14" width="1" height="1" fill="#1a1c2c"/>
<rect x="1" y="15" width="1" height="1" fill="#1a1c2c"/>
<rect x="2" y="15" width="1" height="1" fill="#3b4a6b"/>
<rect x="3" y="15" width="3" height="1" fill="#96a2bc"/>
<rect x="6" y="15" width="1" height="1" fill="#3b4a6b"/>
<rect x="7" y="15" width="2" height="1" fill="#96a2bc"/>
<rect x="9" y="15" width="1" height="1" fill="#3b4a6b"/>
<rect x="10" y="15" width="2" height="1" fill="#96a2bc"/>
<rect x="12" y="15" width="1" height="1" fill="#3b4a6b"/>
<rect x="13" y="15" width="2" height="1" fill="#96a2bc"/>
<rect x="15" y="15" width="1" height="1" fill="#3b4a6b"/>
<rect x="16" y="15" width="2" height="1" fill="#96a2bc"/>
<rect x="18" y="15" width="1" height="1" fill="#3b4a6b"/>
<rect x="19" y="15" width="2" height="1" fill="#96a2bc"/>
<rect x="21" y="15" width="1" height="1" fill="#3b4a6b"/>
<rect x="22" y="15" width="2" height="1" fill="#96a2bc"/>
<rect x="24" y="15" width="1" height="1" fill="#3b4a6b"/>
<rect x="25" y="15" width="4" height="1" fill="#96a2bc"/>
<rect x="29" y="15" width="1" height="1" fill="#3b4a6b"/>
<rect x="30" y="15" width="1" height="1" fill="#1a1c2c"/>
<rect x="1" y="16" width="1" height="1" fill="#1a1c2c"/>
<rect x="2" y="16" width="28" height="1" fill="#3b4a6b"/>
<rect x="30" y="16" width="1" height="1" fill="#1a1c2c"/>
<rect x="1" y="17" width="1" height="1" fill="#1a1c2c"/>
<rect x="2" y="17" width="1" height="1" fill="#3b4a6b"/>
<rect x="3" y="17" width="5" height="1" fill="#f0f2f7"/>
<rect x="8" y="17" width="1" height="1" fill="#3b4a6b"/>
<rect x="9" y="17" width="2" height="1" fill="#f0f2f7"/>
<rect x="11" y="17" width="1" height="1" fill="#3b4a6b"/>
<rect x="12" y="17" width="2" height="1" fill="#f0f2f7"/>
<rect x="14" y="17" width="1" height="1" fill="#3b4a6b"/>
<rect x="15" y="17" width="2" height="1" fill="#f0f2f7"/>
<rect x="17" y="17" width="1" height="1" fill="#3b4a6b"/>
<rect x="18" y="17" width="2" height="1" fill="#f0f2f7"/>
<rect x="20" y="17" width="1" height="1" fill="#3b4a6b"/>
<rect x="21" y="17" width="2" height="1" fill="#f0f2f7"/>
<rect x="23" y="17" width="1" height="1" fill="#3b4a6b"/>
<rect x="24" y="17" width="5" height="1" fill="#ff6b6b"/>
<rect x="29" y="17" width="1" height="1" fill="#3b4a6b"/>
<rect x="30" y="17" width="1" height="1" fill="#1a1c2c"/>
<rect x="1" y="18" width="1" height="1" fill="#1a1c2c"/>
<rect x="2" y="18" width="1" height="1" fill="#3b4a6b"/>
<rect x="3" y="18" width="5" height="1" fill="#96a2bc"/>
<rect x="8" y="18" width="1" height="1" fill="#3b4a6b"/>
<rect x="9" y="18" width="2" height="1" fill="#96a2bc"/>
<rect x="11" y="18" width="1" height="1" fill="#3b4a6b"/>
<rect x="12" y="18" width="2" height="1" fill="#96a2bc"/>
<rect x="14" y="18" width="1" height="1" fill="#3b4a6b"/>
<rect x="15" y="18" width="2" height="1" fill="#96a2bc"/>
<rect x="17" y="18" width="1" height="1" fill="#3b4a6b"/>
<rect x="18" y="18" width="2" height="1" fill="#96a2bc"/>
<rect x="20" y="18" width="1" height="1" fill="#3b4a6b"/>
<rect x="21" y="18" width="2" height="1" fill="#96a2bc"/>
<rect x="23" y="18" width="1" height="1" fill="#3b4a6b"/>
<rect x="24" y="18" width="5" height="1" fill="#be3c4e"/>
<rect x="29" y="18" width="1" height="1" fill="#3b4a6b"/>
<rect x="30" y="18" width="1" height="1" fill="#1a1c2c"/>
<rect x="1" y="19" width="1" height="1" fill="#1a1c2c"/>
<rect x="2" y="19" width="28" height="1" fill="#3b4a6b"/>
<rect x="30" y="19" width="1" height="1" fill="#1a1c2c"/>
<rect x="1" y="20" width="1" height="1" fill="#1a1c2c"/>
<rect x="2" y="20" width="1" height="1" fill="#3b4a6b"/>
<rect x="3" y="20" width="3" height="1" fill="#f0f2f7"/>
<rect x="6" y="20" width="1" height="1" fill="#3b4a6b"/>
<rect x="7" y="20" width="2" height="1" fill="#f0f2f7"/>
<rect x="9" y="20" width="1" height="1" fill="#3b4a6b"/>
<rect x="10" y="20" width="13" height="1" fill="#f0f2f7"/>
<rect x="23" y="20" width="1" height="1" fill="#3b4a6b"/>
<rect x="24" y="20" width="2" height="1" fill="#f0f2f7"/>
<rect x="26" y="20" width="1" height="1" fill="#3b4a6b"/>
<rect x="27" y="20" width="2" height="1" fill="#f0f2f7"/>
<rect x="29" y="20" width="1" height="1" fill="#3b4a6b"/>
<rect x="30" y="20" width="1" height="1" fill="#1a1c2c"/>
<rect x="1" y="21" width="1" height="1" fill="#1a1c2c"/>
<rect x="2" y="21" width="1" height="1" fill="#3b4a6b"/>
<rect x="3" y="21" width="3" height="1" fill="#96a2bc"/>
<rect x="6" y="21" width="1" height="1" fill="#3b4a6b"/>
<rect x="7" y="21" width="2" height="1" fill="#96a2bc"/>
<rect x="9" y="21" width="1" height="1" fill="#3b4a6b"/>
<rect x="10" y="21" width="13" height="1" fill="#96a2bc"/>
<rect x="23" y="21" width="1" height="1" fill="#3b4a6b"/>
<rect x="24" y="21" width="2" height="1" fill="#96a2bc"/>
<rect x="26" y="21" width="1" height="1" fill="#3b4a6b"/>
<rect x="27" y="21" width="2" height="1" fill="#96a2bc"/>
<rect x="29" y="21" width="1" height="1" fill="#3b4a6b"/>
<rect x="30" y="21" width="1" height="1" fill="#1a1c2c"/>
<rect x="1" y="22" width="1" height="1" fill="#1a1c2c"/>
<rect x="2" y="22" width="28" height="1" fill="#3b4a6b"/>
<rect x="30" y="22" width="1" height="1" fill="#1a1c2c"/>
<rect x="1" y="23" width="2" height="1" fill="#1a1c2c"/>
<rect x="3" y="23" width="26" height="1" fill="#28324c"/>
<rect x="29" y="23" width="2" height="1" fill="#1a1c2c"/>
<rect x="2" y="24" width="28" height="1" fill="#1a1c2c"/>
</svg>
